<svg xmlns="http://www.w3.org/2000/svg" xmlns:xlink="http://www.w3.org/1999/xlink" version="1.1" x="0px" y="0px" width="100px" height="100px" viewBox="5.0 -10.0 100.0 135.0" enable-background="new 0 0 100 100" xml:space="preserve">
<g id="Captions">
</g>
<g id="Your_Icon">
	<path fill="#000000" d="M66.026,48.998l29.799-29.8c1.567-1.563,1.567-4.107,0-5.675L84.475,2.173   c-1.567-1.567-4.107-1.567-5.676,0L49,31.972L19.201,2.173c-1.568-1.567-4.107-1.563-5.676,0L2.175,13.527   c-1.567,1.567-1.567,4.107,0,5.675l29.8,29.8l-29.8,29.795c-1.567,1.568-1.567,4.111,0,5.68l11.351,11.351   c1.568,1.567,4.107,1.563,5.676,0L49,66.027l29.799,29.8c1.568,1.567,4.108,1.567,5.676,0l11.351-11.354   c1.567-1.564,1.567-4.107,0-5.676L66.026,48.998z"/>
</g></svg>
